<svg width="99" height="101" viewBox="0 0 99 101" fill="none" xmlns="http://www.w3.org/2000/svg">
<path d="M30.2994 5.09534L17.209 7.76829C17.1897 19.3221 16.8725 31.306 8.79979 40.755C20.1867 48.6259 36.5449 51.4271 47.7598 49.0797V29.5504L20.9408 17.4027L22.3717 14.1597L49.5 26.473L76.6283 14.1597L78.0592 17.4027L51.2402 29.5504V49.0797C62.4551 51.4271 78.8133 48.6259 90.2021 40.755C82.1197 31.306 81.8103 19.3221 81.791 7.76829L68.7006 5.09534C66.2062 7.83338 64.7174 10.6484 62.3391 13.0905C59.7287 15.7378 55.9775 17.5566 49.5 17.5566C43.0225 17.5566 39.2713 15.7378 36.6609 13.0905C34.2826 10.6484 32.7938 7.83338 30.2994 5.09534ZM10.4182 45.9431C14.6876 55.4316 18.576 66.3996 19.858 77.4859L32.4264 81.9836C33.2385 71.5877 37.8791 61.4679 44.7434 53.1631C34.0893 54.4058 21.0182 52.0189 10.4182 45.9431V45.9431ZM88.5779 45.9431C77.9818 52.0189 64.9107 54.4058 54.2566 53.1631C61.1209 61.4679 65.7615 71.5877 66.5736 81.9836L79.1807 77.4662C80.4568 66.2615 84.324 55.4119 88.5779 45.9431V45.9431ZM49.5 53.0644C41.6689 61.5666 36.4096 72.3767 35.8295 83.1869L47.7598 87.4478V66.2812H51.2402V87.4478L63.1705 83.1869C62.5711 72.3767 57.3311 61.5666 49.5 53.0644ZM78.8326 81.3523L57.4277 88.9865V92.6951L78.7359 83.9957C78.7553 83.108 78.7939 82.24 78.8326 81.3523V81.3523ZM20.1867 81.372C20.2447 82.2597 20.2641 83.1277 20.2834 84.0154L41.5723 92.6951V89.0062L20.1867 81.372ZM53.9473 90.2293L49.5 91.8271L45.0527 90.249V94.1154L49.5 95.9302L53.9473 94.1154V90.2293V90.2293Z" fill="white"/>
</svg>
