<svg width="99" height="101" viewBox="0 0 99 101" fill="none" xmlns="http://www.w3.org/2000/svg">
<path fill-rule="evenodd" clip-rule="evenodd" d="M49.6072 0C37.1866 0 25.8682 4.18509 19.1736 7.60609C18.5701 7.91434 18.0046 8.2164 17.4789 8.50862C16.4389 9.08692 15.5558 9.62672 14.85 10.1L22.4673 21.54L26.0526 22.9962C40.0675 30.2104 58.8617 30.2104 72.8766 22.9962L76.9477 20.8414L84.15 10.1C83.0947 9.38215 81.6349 8.51122 79.8388 7.58518C79.7294 7.52872 79.6188 7.47208 79.5067 7.41525C72.841 4.03149 61.7975 0 49.6072 0ZM31.8909 12.9509C29.1495 12.4349 26.456 11.7232 23.9134 10.9067C30.1871 8.0647 39.5364 5.05 49.6072 5.05C56.5849 5.05 63.1823 6.49746 68.6392 8.33023C62.2443 9.2512 55.4199 10.8059 48.9194 12.7245C43.8043 14.2341 37.8252 14.068 31.8909 12.9509Z" fill="white"/>
<path fill-rule="evenodd" clip-rule="evenodd" d="M75.7808 27.158L75.1066 27.5049C59.6891 35.441 39.2401 35.441 23.8229 27.5049L23.1818 27.1751C0.0224658 53.1018 -24.2738 101.72 49.6072 100.992C123.437 100.264 98.7607 52.2072 75.7808 27.158ZM53.7355 45.4501H45.2646V49.4901C42.5119 49.4835 39.8651 50.4998 37.8843 52.3236C35.9041 54.1469 34.746 56.6343 34.6557 59.2586C34.5654 61.8828 35.5499 64.4373 37.4005 66.3808C39.2513 68.3243 41.8228 69.504 44.5701 69.6699L45.2646 69.6901H53.7355L54.1166 69.7224C54.605 69.8067 55.0467 70.0519 55.3648 70.4153C55.6828 70.7784 55.8573 71.2369 55.8573 71.7101C55.8573 72.1833 55.6828 72.6418 55.3648 73.0049C55.0467 73.3683 54.605 73.6134 54.1166 73.6978L53.7355 73.7301H36.7936V81.8101H45.2646V85.8501H53.7355V81.8101C56.4882 81.8167 59.135 80.8004 61.1157 78.9765C63.0959 77.1532 64.254 74.6659 64.3443 72.0416C64.4347 69.4174 63.4501 66.8628 61.5996 64.9194C59.7488 62.9759 57.1772 61.7962 54.43 61.6303L53.7355 61.6101H45.2646L44.8834 61.5778C44.3951 61.4934 43.9533 61.2483 43.6353 60.8849C43.3172 60.5218 43.1427 60.0633 43.1427 59.5901C43.1427 59.1169 43.3172 58.6584 43.6353 58.2953C43.9533 57.9319 44.3951 57.6867 44.8834 57.6024L45.2646 57.5701H62.2064V49.4901H53.7355V45.4501Z" fill="white"/>
</svg>
