<svg width="99" height="101" viewBox="0 0 99 101" fill="none" xmlns="http://www.w3.org/2000/svg">
<path d="M49.5 0C49.5 0 18.8793 29.9633 1.76715 46.1907C0.762301 47.2231 0 48.7269 0 50.5C0 53.6029 2.21265 56.1111 4.95 56.1111H14.85V95.3889C14.85 98.4918 17.0626 101 19.8 101H34.65C37.3873 101 39.6 98.4862 39.6 95.3889V72.9444H59.4V95.3889C59.4 98.4862 61.6126 101 64.35 101H79.2C81.9373 101 84.15 98.4918 84.15 95.3889V56.1111H94.05C96.7873 56.1111 99 53.6029 99 50.5C99 48.7269 98.2377 47.2231 97.1041 46.1907C80.1108 29.9633 49.5 0 49.5 0Z" fill="white"/>
</svg>
