<svg width="150" height="150" viewBox="0 0 150 150" fill="none" xmlns="http://www.w3.org/2000/svg">
<path d="M75 0C33.5788 0 0 33.5788 0 75C0 116.421 33.5788 150 75 150C116.421 150 150 116.421 150 75C150 33.5788 116.421 0 75 0ZM75 16.2964C107.421 16.2964 133.695 42.587 133.695 75C133.695 107.413 107.421 133.695 75 133.695C42.5788 133.695 16.3055 107.413 16.3055 75C16.3056 42.587 42.5788 16.2964 75 16.2964ZM103.738 39.386L60.2691 82.8644L46.17 68.7653L32.3364 82.5898L46.4355 96.6889L60.3606 110.614L74.1852 96.7804L117.663 53.3111L103.738 39.386Z" fill="#DDCC33"/>
</svg>
