<svg width="40" height="36" viewBox="0 0 40 36" fill="none" xmlns="http://www.w3.org/2000/svg">
<path d="M37.0392 0.00335332C36.5222 0.0274449 36.0353 0.178017 35.6026 0.346658H35.5965C35.1577 0.521322 33.0719 1.40067 29.9042 2.73173C26.7364 4.06881 22.6249 5.80341 18.5435 7.52595C10.3926 10.965 2.37999 14.3499 2.37999 14.3499L2.47616 14.3138C2.47616 14.3138 1.92316 14.4944 1.3461 14.892C1.05157 15.0847 0.726975 15.3497 0.444461 15.7653C0.161946 16.1809 -0.0664715 16.8193 0.0176827 17.4758C0.155935 18.59 0.87725 19.2586 1.39419 19.626C1.91715 19.9994 2.41606 20.174 2.41606 20.174H2.42808L9.94177 22.7097C10.2784 23.7938 12.2319 30.2263 12.7008 31.7079C12.9773 32.5933 13.2478 33.1474 13.5844 33.569C13.7467 33.7858 13.9391 33.9665 14.1675 34.111C14.2576 34.1652 14.3538 34.2074 14.45 34.2435C14.48 34.2616 14.5101 34.2676 14.5462 34.2737L14.468 34.2556C14.4921 34.2616 14.5101 34.2797 14.5281 34.2857C14.5882 34.3038 14.6303 34.3098 14.7085 34.3218C15.8986 34.6832 16.8544 33.9424 16.8544 33.9424L16.9085 33.9002L21.3446 29.8528L28.7801 35.5686L28.9484 35.6409C30.4993 36.3214 32.0681 35.942 32.8976 35.2735C33.7331 34.5989 34.0577 33.7376 34.0577 33.7376L34.1118 33.5991L39.8583 4.10495C40.0206 3.37618 40.0627 2.69559 39.8824 2.03307C39.702 1.37055 39.2392 0.750193 38.6802 0.418933C38.1151 0.0816507 37.5561 -0.0207383 37.0392 0.00335332ZM36.8829 3.16538C36.8769 3.26174 36.8949 3.2497 36.8528 3.4364V3.45447L31.1605 32.6414C31.1364 32.6836 31.0943 32.7739 30.9801 32.8643C30.8599 32.9607 30.7637 33.0209 30.2648 32.8221L21.1702 25.8356L15.6762 30.8526L16.8303 23.4686C16.8303 23.4686 31.0763 10.164 31.6894 9.59181C32.3025 9.01963 32.0982 8.89917 32.0982 8.89917C32.1402 8.20052 31.1725 8.6944 31.1725 8.6944L12.4363 20.3246L12.4303 20.2945L3.44994 17.265V17.259C3.44393 17.259 3.43191 17.2529 3.4259 17.2529C3.43191 17.2529 3.47398 17.2349 3.47398 17.2349L3.52207 17.2108L3.57016 17.1927C3.57016 17.1927 11.5888 13.8078 19.7396 10.3688C23.8211 8.64621 27.9326 6.91162 31.0943 5.57453C34.2561 4.24347 36.5944 3.26776 36.7266 3.21356C36.8528 3.16538 36.7927 3.16538 36.8829 3.16538Z" fill="#B8B8B8"/>
</svg>
