<svg width="24" height="32" viewBox="0 0 24 32" fill="none" xmlns="http://www.w3.org/2000/svg">
<path fill-rule="evenodd" clip-rule="evenodd" d="M14.6855 6.61699C15.1298 6.65235 15.462 7.04905 15.4274 7.50304L14.6161 18.1448L10.0432 25.1692L0.500244 32V16.2762C0.500244 15.8208 0.861552 15.4516 1.30725 15.4516C1.75294 15.4516 2.11425 15.8208 2.11425 16.2762V28.8312L8.8679 23.997L13.0396 17.5889L13.8182 7.37499C13.8528 6.92099 14.2411 6.58162 14.6855 6.61699Z" fill="#176CEC"/>
<path fill-rule="evenodd" clip-rule="evenodd" d="M9.31454 6.61697C8.87019 6.65233 8.53803 7.04903 8.57264 7.50303L9.3832 18.1355L13.7533 25.168L23.4998 31.9784V16.2762C23.4998 15.8208 23.1384 15.4516 22.6928 15.4516C22.2471 15.4516 21.8858 15.8208 21.8858 16.2762V28.8528L14.9381 23.9981L10.9611 17.5982L10.1818 7.37497C10.1472 6.92098 9.75889 6.58161 9.31454 6.61697Z" fill="#176CEC"/>
<path fill-rule="evenodd" clip-rule="evenodd" d="M11.797 2.88746C11.4293 3.88864 10.8968 5.4197 10.1417 7.70293C9.99905 8.13434 9.54109 8.3659 9.11885 8.22014C8.6966 8.07438 8.46996 7.60649 8.61263 7.17508C9.58792 4.22586 10.2022 2.49985 10.5754 1.53908C10.7587 1.06733 10.8954 0.749756 10.9961 0.559371C11.0223 0.509854 11.0538 0.454079 11.09 0.400344L11.0911 0.398706C11.1137 0.365213 11.1925 0.248093 11.3256 0.153056C11.3923 0.105444 11.5703 -0.00807096 11.8253 0.000455088C12.138 0.0109063 12.3588 0.192581 12.474 0.365652C12.5359 0.458715 12.5692 0.549155 12.5875 0.616332L15.3623 7.10907C15.5406 7.52639 15.3541 8.01242 14.9456 8.19463C14.5372 8.37685 14.0615 8.18626 13.8831 7.76894L11.797 2.88746Z" fill="#176CEC"/>
<path fill-rule="evenodd" clip-rule="evenodd" d="M2.11425 10.2572V16.6871H0.500244V10.2572H2.11425ZM21.8858 10.2572H23.4998V16.6871H21.8858V10.2572Z" fill="#CEBD22"/>
<path fill-rule="evenodd" clip-rule="evenodd" d="M23.4409 9.94796C23.608 10.3701 23.4087 10.8507 22.9955 11.0216L18.1005 13.0454L17.1851 13.9653L16.6265 17.0126C16.5444 17.4602 16.1228 17.7551 15.6847 17.6713C15.2466 17.5875 14.958 17.1567 15.04 16.7091L15.692 13.1528L17.1975 11.6398L22.3901 9.49294C22.8032 9.32213 23.2737 9.52585 23.4409 9.94796ZM0.563576 9.93699C0.736697 9.51737 1.20998 9.3206 1.62067 9.49748L6.64033 11.6593L7.87954 13.1537L8.93708 16.6152C9.06988 17.0499 8.83265 17.5122 8.4072 17.6479C7.98175 17.7836 7.52919 17.5412 7.39639 17.1065L6.43642 13.9644L5.65812 13.0259L0.993749 11.017C0.58305 10.8402 0.390455 10.3566 0.563576 9.93699Z" fill="#CEBD22"/>
<path fill-rule="evenodd" clip-rule="evenodd" d="M4.63684 17.5119C5.64445 16.4155 7.11046 15.9353 8.27123 16.0898C8.71319 16.1486 9.0248 16.5623 8.96724 17.0139C8.90967 17.4654 8.50472 17.7838 8.06276 17.725C7.43143 17.641 6.47629 17.9194 5.81342 18.6407C5.19899 19.3092 4.77674 20.4299 5.30618 22.178C5.43794 22.613 5.19958 23.0748 4.77381 23.2094C4.34803 23.344 3.89606 23.1005 3.76431 22.6655C3.08321 20.4167 3.58078 18.6609 4.63684 17.5119Z" fill="#CEBD22"/>
<path fill-rule="evenodd" clip-rule="evenodd" d="M19.3634 17.4868C18.3558 16.3904 16.8898 15.9102 15.729 16.0647C15.2871 16.1235 14.9754 16.5372 15.033 16.9888C15.0906 17.4403 15.4955 17.7587 15.9375 17.6999C16.5688 17.6159 17.524 17.8944 18.1868 18.6156C18.8013 19.2841 19.2235 20.4048 18.6941 22.1529C18.5623 22.5879 18.8007 23.0497 19.2264 23.1843C19.6522 23.3189 20.1042 23.0754 20.2359 22.6404C20.917 20.3916 20.4195 18.6358 19.3634 17.4868Z" fill="#CEBD22"/>
<path fill-rule="evenodd" clip-rule="evenodd" d="M4.25844 21.6472C3.83976 21.8033 3.62422 22.2767 3.77703 22.7044C4.23881 23.9971 5.24006 25.3144 6.26101 26.3517C7.27162 27.3784 8.43171 28.2621 9.30466 28.5844C9.72383 28.7391 10.1864 28.5174 10.3379 28.0891C10.4893 27.6608 10.2723 27.1882 9.85311 27.0334C9.31381 26.8344 8.35552 26.1541 7.39906 25.1823C6.45294 24.2211 5.63843 23.1055 5.29321 22.1391C5.1404 21.7113 4.67712 21.4911 4.25844 21.6472Z" fill="#CEBD22"/>
<path fill-rule="evenodd" clip-rule="evenodd" d="M19.7414 21.6472C19.3228 21.4911 18.8595 21.7113 18.7067 22.1391C18.3614 23.1055 17.5469 24.2211 16.6008 25.1823C15.6444 26.1541 14.6861 26.8344 14.1468 27.0335C13.7276 27.1882 13.5106 27.6608 13.662 28.0891C13.8135 28.5174 14.276 28.7391 14.6952 28.5844C15.5682 28.2621 16.7283 27.3784 17.7389 26.3517C18.7598 25.3144 19.7611 23.9971 20.2228 22.7044C20.3756 22.2767 20.1601 21.8033 19.7414 21.6472Z" fill="#CEBD22"/>
<path fill-rule="evenodd" clip-rule="evenodd" d="M8.7798 27.6942C8.84182 27.2432 9.24988 26.929 9.69124 26.9924L12 27.3238L14.3087 26.9924C14.75 26.929 15.1581 27.2432 15.2201 27.6942C15.2821 28.1451 14.9746 28.562 14.5333 28.6254L12 28.9891L9.46667 28.6254C9.02531 28.562 8.71779 28.1451 8.7798 27.6942Z" fill="#CEBD22"/>
</svg>
