<svg width="38" height="38" viewBox="0 0 38 38" fill="none" xmlns="http://www.w3.org/2000/svg">
<path fill-rule="evenodd" clip-rule="evenodd" d="M35.5484 38H26.3103H20.2934H2.45161C1.09759 38 0 36.9024 0 35.5484V2.45161C0 1.09759 1.09759 0 2.45161 0H35.5484C36.9024 0 38 1.09759 38 2.45161V35.5484C38 36.9024 36.9024 38 35.5484 38ZM26.3099 22.958L26.3103 38H20.2934L20.2931 22.958H15.4797V16.9413H20.2931V13.3312C20.2931 3.91712 28.4268 4.99751 31.6179 5.42138C31.894 5.45805 32.133 5.48981 32.3267 5.50943V10.9245H28.7166C28.1149 10.9245 26.3099 10.9245 26.3099 13.3312V16.9413H32.3267L31.725 22.958H26.3099Z" fill="#B8B8B8"/>
</svg>
