<svg width="99" height="101" viewBox="0 0 99 101" fill="none" xmlns="http://www.w3.org/2000/svg">
<path d="M49.4992 10C41.6962 10 35.3706 16.1137 35.3706 23.6554C35.3706 31.1969 41.6962 37.3106 49.4992 37.3106C57.3022 37.3106 63.6278 31.1969 63.6278 23.6554C63.6278 16.1137 57.3022 10 49.4992 10Z" fill="white"/>
<path d="M81.3207 16.8208C75.4628 16.8208 70.7136 21.4106 70.7136 27.0725C70.7136 32.7344 75.4628 37.3242 81.3207 37.3242C87.1786 37.3242 91.9277 32.7344 91.9277 27.0725C91.9277 21.4106 87.1786 16.8208 81.3207 16.8208Z" fill="white"/>
<path d="M17.6784 16.8208C11.8203 16.8208 7.07139 21.4106 7.07139 27.0725C7.07139 32.7344 11.8203 37.3242 17.6784 37.3242C23.5366 37.3242 28.2855 32.7344 28.2855 27.0725C28.2855 21.4106 23.5366 16.8208 17.6784 16.8208Z" fill="white"/>
<path d="M28.2854 50.9469C28.3101 47.1926 31.4665 44.1565 35.3567 44.1565H63.6421C67.5476 44.1565 70.7135 47.2165 70.7135 50.9911V71.4966C70.7135 72.2039 70.6767 72.9038 70.6039 73.5927C70.4504 75.056 70.1372 76.4734 69.6825 77.8294C66.9218 86.054 58.929 92 49.4994 92C39.9799 92 31.9249 85.9399 29.239 77.5936C28.6192 75.6677 28.2853 73.62 28.2853 71.4966V50.991C28.2853 50.9763 28.2854 50.9616 28.2854 50.9469Z" fill="white"/>
<path d="M21.2141 50.991C21.2141 48.5014 21.9028 46.1671 23.1061 44.1565H7.07136C3.16599 44.1565 0 47.2165 0 50.991V68.0793C0 77.5157 7.9149 85.1655 17.6784 85.1655C20.0199 85.1655 22.2551 84.7254 24.3002 83.9264C22.3271 80.1975 21.2141 75.9725 21.2141 71.4966V50.991Z" fill="white"/>
<path d="M77.7859 50.9911V71.4966C77.7859 75.9725 76.6729 80.1975 74.7 83.9264C76.745 84.7254 78.9803 85.1655 81.3216 85.1655C91.085 85.1655 99 77.5157 99 68.0793V50.991C99 47.2165 95.8342 44.1565 91.9286 44.1565H75.8936C77.0972 46.1671 77.7859 48.5014 77.7859 50.9911Z" fill="white"/>
</svg>
