<svg width="25" height="25" viewBox="0 0 25 25" fill="none" xmlns="http://www.w3.org/2000/svg">
<path d="M23.75 20L23.6042 19.9916C23.0304 19.9249 22.5751 19.4696 22.5084 18.8958L22.5 18.75V2.5H6.25L6.10422 2.49159C5.48255 2.41938 5 1.89104 5 1.25C5 0.608955 5.48255 0.080616 6.10422 0.00840962L6.25 0H23.75L23.8958 0.00840962C24.4696 0.0750617 24.9249 0.530371 24.9916 1.10422L25 1.25V18.75L24.9916 18.8958C24.9249 19.4696 24.4696 19.9249 23.8958 19.9916L23.75 20ZM1.25 25L1.10422 24.9916C0.530371 24.9249 0.0750618 24.4696 0.0084095 23.8958L0 23.75V6.25L0.0084095 6.10422C0.0695076 5.57819 0.457186 5.15177 0.963387 5.03301L1.10422 5.00841L1.25 5H18.75L18.8958 5.00841C19.4696 5.07506 19.9249 5.53037 19.9916 6.10422L20 6.25V23.75L19.9916 23.8958C19.9305 24.4218 19.5428 24.8482 19.0366 24.967L18.8958 24.9916L18.75 25H1.25ZM17.5 22.5V7.5H2.5V22.5H17.5Z" fill="#949494"/>
</svg>
