<svg width="30" height="30" viewBox="0 0 30 30" fill="none" xmlns="http://www.w3.org/2000/svg">
<path d="M30.0001 15.2C30.0001 13.1 28.4063 12 26.2501 12H19.9688C20.4376 10.2 20.6251 8.5 20.6251 7C20.6251 1.2 19.1251 0 17.8126 0C16.9688 0 16.3126 0.1 15.4688 0.6C15.1876 0.8 15.0938 1 15.0001 1.3L14.0626 6.7C13.0313 9.5 10.5001 12 8.43756 13.7V28C9.18756 28 9.93756 28.4 10.8751 28.9C11.9063 29.4 12.9376 30 14.0626 30H22.9688C24.8438 30 26.2501 28.4 26.2501 27C26.2501 26.7 26.2501 26.5 26.1563 26.3C27.2813 25.8 28.1251 24.8 28.1251 23.5C28.1251 22.9 28.0313 22.4 27.8438 21.9C28.5938 21.4 29.2501 20.5 29.2501 19.5C29.2501 18.9 28.9688 18.3 28.6876 17.8C29.4375 17.2 30.0001 16.2 30.0001 15.2ZM28.0313 15.2C28.0313 16.5 26.8126 16.6 26.6251 17.2C26.4376 17.9 27.3751 18.1 27.3751 19.3C27.3751 20.5 25.9688 20.5 25.7813 21.2C25.5938 22 26.2501 22.2 26.2501 23.4V23.6C26.0626 24.6 24.6563 24.7 24.3751 25.1C24.0938 25.6 24.3751 25.8 24.3751 26.9C24.3751 27.5 23.7188 27.9 22.9688 27.9H14.0626C13.3126 27.9 12.5626 27.5 11.6251 27C10.8751 26.6 10.1251 26.2 9.37506 26V15.5C11.7188 13.6 14.7188 10.8 15.8438 7.3V7.1L16.6876 2.1C17.0626 2 17.3438 2 17.8126 2C18.0001 2 18.7501 3.2 18.7501 7C18.7501 8.5 18.4688 10.1 18.0001 12H17.8126C17.2501 12 16.8751 12.4 16.8751 13C16.8751 13.6 17.2501 14 17.8126 14H26.2501C27.1876 14 28.0313 14.5 28.0313 15.2Z" fill="black"/>
<path d="M7.5 30H1.875C0.84375 30 0 29.1 0 28V14C0 12.9 0.84375 12 1.875 12H7.5C8.53125 12 9.375 12.9 9.375 14V28C9.375 29.1 8.53125 30 7.5 30ZM1.875 14V28H7.5V14H1.875Z" fill="black"/>
</svg>
