<svg width="199" height="80" viewBox="0 0 199 80" fill="none" xmlns="http://www.w3.org/2000/svg">
<path d="M2 41.7026V76L22.194 61.8523L33.0299 45.561L34.0149 32.9138L35 20.2667" stroke="#176CEC" stroke-width="4" stroke-linecap="round"/>
<path d="M55 41.7026V76L34.3134 61.8523L23.9701 45.561L22 20.2667" stroke="#176CEC" stroke-width="4" stroke-linecap="round"/>
<path d="M22 20.2667C26.8286 5.97562 28.0357 3.67884 28.0357 4.31683L35 20.2667" stroke="#176CEC" stroke-width="4" stroke-linecap="round"/>
<path d="M2 42.6993V34.901V27.1028M55 42.6993V27.1028" stroke="#CEBD22" stroke-width="4"/>
<path d="M55 27.1028L42.5 32.1611L39.5 35.1118L38 43.1208M2 27.1028L14 32.1611L16.5 35.1118L19 43.1208" stroke="#CEBD22" stroke-width="4" stroke-linecap="round"/>
<path d="M19.0007 43.2338C14.5593 42.6553 7 46.9146 10.0001 56.6098" stroke="#CEBD22" stroke-width="4" stroke-linecap="round"/>
<path d="M38.0001 43.1726C42.4414 42.5941 50.0007 46.8534 47.0006 56.5486" stroke="#CEBD22" stroke-width="4" stroke-linecap="round"/>
<path d="M10 56.6097C12 62.0896 19 68.4125 22.5 69.6771" stroke="#CEBD22" stroke-width="4" stroke-linecap="round"/>
<path d="M47 56.6097C45 62.0896 38 68.4125 34.5 69.6771" stroke="#CEBD22" stroke-width="4" stroke-linecap="round"/>
<path d="M22.5 69.6771L28.5 70.5201L34.5 69.6771" stroke="#CEBD22" stroke-width="4" stroke-linecap="round"/>
<path d="M81.6 66.32C78.08 66.32 75.08 65.84 72.6 64.88C70.1467 63.92 68.2667 62.5333 66.96 60.72C65.6533 58.88 65 56.6667 65 54.08C65 51.44 65.6533 49.2133 66.96 47.4C68.2667 45.5867 70.1467 44.2 72.6 43.24C75.08 42.28 78.08 41.8 81.6 41.8C81.6533 41.8 81.7733 41.8 81.96 41.8C82.1733 41.8 82.3733 41.8 82.56 41.8C82.7733 41.8 82.8933 41.8 82.92 41.8C86.4133 41.8 89.3867 42.28 91.84 43.24C94.2933 44.2 96.16 45.6 97.44 47.44C98.72 49.2533 99.36 51.4667 99.36 54.08C99.36 56.64 98.72 58.84 97.44 60.68C96.1867 62.52 94.3467 63.92 91.92 64.88C89.52 65.84 86.5867 66.32 83.12 66.32C83.0667 66.32 82.92 66.32 82.68 66.32C82.4667 66.32 82.24 66.32 82 66.32C81.7867 66.32 81.6533 66.32 81.6 66.32ZM82.12 62.28C82.1733 62.28 82.2533 62.28 82.36 62.28C82.4667 62.28 82.5333 62.28 82.56 62.28C85.1467 62.2533 87.3067 61.9333 89.04 61.32C90.8 60.7067 92.12 59.8 93 58.6C93.9067 57.3733 94.36 55.8533 94.36 54.04C94.36 52.2267 93.9067 50.72 93 49.52C92.0933 48.32 90.7733 47.4133 89.04 46.8C87.3067 46.1867 85.1733 45.88 82.64 45.88C82.6133 45.88 82.5333 45.88 82.4 45.88C82.2667 45.88 82.1733 45.88 82.12 45.88C79.48 45.88 77.2533 46.1867 75.44 46.8C73.6533 47.3867 72.3067 48.2933 71.4 49.52C70.52 50.72 70.08 52.24 70.08 54.08C70.08 55.92 70.5467 57.4533 71.48 58.68C72.44 59.88 73.8133 60.7867 75.6 61.4C77.3867 61.9867 79.56 62.28 82.12 62.28ZM79.8 69.24V39H84.6V69.24H79.8Z" fill="white"/>
<path d="M117.821 68.52C115.634 68.52 113.621 68.16 111.781 67.44C109.941 66.72 108.341 65.72 106.981 64.44C105.621 63.1333 104.568 61.6133 103.821 59.88C103.074 58.12 102.701 56.2 102.701 54.12C102.701 52.04 103.074 50.1333 103.821 48.4C104.568 46.64 105.621 45.12 106.981 43.84C108.341 42.5333 109.941 41.52 111.781 40.8C113.621 40.08 115.621 39.72 117.781 39.72C119.968 39.72 121.968 40.08 123.781 40.8C125.621 41.52 127.221 42.5333 128.581 43.84C129.941 45.12 130.994 46.64 131.741 48.4C132.488 50.1333 132.861 52.04 132.861 54.12C132.861 56.2 132.488 58.12 131.741 59.88C130.994 61.64 129.941 63.16 128.581 64.44C127.221 65.72 125.621 66.72 123.781 67.44C121.968 68.16 119.981 68.52 117.821 68.52ZM117.781 63.96C119.194 63.96 120.501 63.72 121.701 63.24C122.901 62.76 123.941 62.08 124.821 61.2C125.701 60.2933 126.381 59.2533 126.861 58.08C127.368 56.88 127.621 55.56 127.621 54.12C127.621 52.68 127.368 51.3733 126.861 50.2C126.381 49 125.701 47.96 124.821 47.08C123.941 46.1733 122.901 45.48 121.701 45C120.501 44.52 119.194 44.28 117.781 44.28C116.368 44.28 115.061 44.52 113.861 45C112.688 45.48 111.648 46.1733 110.741 47.08C109.861 47.96 109.168 49 108.661 50.2C108.181 51.3733 107.941 52.68 107.941 54.12C107.941 55.5333 108.181 56.84 108.661 58.04C109.168 59.24 109.861 60.2933 110.741 61.2C111.621 62.08 112.661 62.76 113.861 63.24C115.061 63.72 116.368 63.96 117.781 63.96Z" fill="white"/>
<path d="M158.29 40.12H163.49V68.12H158.29V40.12ZM143.81 68.12H138.61V40.12H143.81V68.12ZM158.69 56.12H143.37V51.68H158.69V56.12Z" fill="white"/>
<path d="M189.671 65.72V44.52H178.711L178.511 49.48C178.431 51.3467 178.311 53.12 178.151 54.8C178.018 56.4533 177.791 57.96 177.471 59.32C177.178 60.68 176.764 61.8133 176.231 62.72C175.698 63.6267 175.044 64.2267 174.271 64.52L168.671 63.72C169.684 63.7733 170.511 63.4267 171.151 62.68C171.818 61.9333 172.338 60.8933 172.711 59.56C173.084 58.2267 173.364 56.6667 173.551 54.88C173.738 53.0667 173.871 51.1067 173.951 49L174.271 40.12H194.791V65.72H189.671ZM167.711 74.08L167.751 63.72H198.831V74.08H194.031V68.12H172.551V74.08H167.711Z" fill="white"/>
</svg>
