<svg width="43" height="35" viewBox="0 0 43 35" fill="none" xmlns="http://www.w3.org/2000/svg">
<path d="M41.7413 0.550076C41.7413 0.550076 39.4722 2.34328 36.288 2.66606C36.288 2.66606 31.2739 -2.82123 24.1003 1.9488C20.8795 4.17237 20.5867 8.87069 21.1357 10.5563C21.1357 10.5563 11.4002 11.3095 2.90906 1.55431C2.90906 1.55431 -0.897279 8.00994 5.39782 13.1744C5.39782 13.1744 3.5372 13.4613 1.76856 12.0268C1.76856 12.0268 0.93259 18.6976 8.54536 20.5626C8.54536 20.5626 8.033 21.4234 4.95862 20.5626C4.95862 20.5626 5.47099 26.014 12.7177 26.8031C12.7177 26.8031 8.80282 30.7481 0 30.2461C0 30.2461 14.5478 40.9337 30.2856 28.0225C39.0695 20.7061 38.7768 10.1619 38.6303 8.58389C38.6303 8.58389 42.0992 6.00164 43 4.35184C43 4.35184 40.314 5.21259 38.118 5.21259C38.118 5.21242 41.0459 3.7061 41.7413 0.550076Z" fill="#B8B8B8"/>
</svg>
